<?xml version="1.0" encoding="utf-8"?>
<!-- Generator: Adobe Illustrator 14.0.0, SVG Export Plug-In . SVG Version: 6.00 Build 43363)  -->
<!DOCTYPE svg PUBLIC "-//W3C//DTD SVG 1.0//EN" "http://www.w3.org/TR/2001/REC-SVG-20010904/DTD/svg10.dtd">
<svg version="1.0" id="Layer_1" xmlns="http://www.w3.org/2000/svg" xmlns:xlink="http://www.w3.org/1999/xlink" x="0px" y="0px"
	 width="95.774px" height="100px" viewBox="0 0 95.774 100" enable-background="new 0 0 95.774 100" xml:space="preserve">
<path id="path2841" d="M47.663,0C36.296,0,27.083,9.31,27.083,20.803
	c0,5.929,2.495,11.261,6.436,15.054c3.045,2.928,7.386,9.572,8.831,14.9c-2.82-1.717-5.356-3.673-6.885-5.295
	c-3.751-3.984-9.024-6.429-14.889-6.429C9.208,39.032,0,48.34,0,59.833c0,11.491,9.208,20.802,20.577,20.802
	c5.864,0,11.138-2.52,14.889-6.504c1.607-1.709,4.329-3.871,7.33-5.675C42.377,87.535,35.898,100,24.092,100h47.212
	c-11.837,0-18.388-12.533-18.777-31.695c3.165,1.837,6.11,4.051,7.78,5.826c3.753,3.984,9.023,6.504,14.891,6.504
	c11.366,0,20.577-9.311,20.577-20.802c0-11.493-9.211-20.801-20.577-20.801c-5.867,0-11.138,2.445-14.891,6.429
	c-1.59,1.688-4.349,3.687-7.334,5.446c1.402-5.352,5.831-12.093,8.906-15.05c3.94-3.793,6.359-9.125,6.359-15.054
	C68.238,9.31,59.027,0,47.663,0z"/>
</svg>
