<?xml version="1.0" encoding="utf-8"?>
<!-- Generator: Adobe Illustrator 14.0.0, SVG Export Plug-In . SVG Version: 6.00 Build 43363)  -->
<!DOCTYPE svg PUBLIC "-//W3C//DTD SVG 1.0//EN" "http://www.w3.org/TR/2001/REC-SVG-20010904/DTD/svg10.dtd">
<svg version="1.0" id="Layer_1" xmlns="http://www.w3.org/2000/svg" xmlns:xlink="http://www.w3.org/1999/xlink" x="0px" y="0px"
	 width="78.106px" height="100px" viewBox="0 0 78.106 100" enable-background="new 0 0 78.106 100" xml:space="preserve">
<path d="M39.134,0c1.393,5.851,3.535,11.078,6.43,15.679c2.892,4.604,8.046,10.304,15.467,17.1
	c7.419,6.797,12.119,12.01,14.103,15.637c1.98,3.628,2.974,7.312,2.974,11.049c0,5.198-1.716,9.53-5.144,12.996
	c-3.429,3.465-7.606,5.199-12.535,5.199c-4.179,0-7.97-1.312-11.371-3.939c-3.402-2.626-6.415-6.459-9.039-11.495
	c0.052,7.96,1.085,14.284,3.095,18.968c2.007,4.685,5.223,8.368,9.642,11.048c4.418,2.682,10.298,4.266,17.637,4.75L70.954,100
	H7.234l0.642-3.009c9.856,0,17.502-2.908,22.941-8.73c5.437-5.82,8.047-14.499,7.834-26.035c-2.411,5.146-5.396,9.005-8.959,11.576
	c-3.562,2.572-7.593,3.858-12.093,3.858c-4.821,0-8.959-1.759-12.414-5.281C1.729,68.86,0,64.638,0,59.708
	c0-3.953,0.886-7.528,2.654-10.724c2.41-4.44,6.318-8.907,11.73-13.404c5.411-4.495,9.403-8.203,11.973-11.128
	c3.91-4.495,6.763-8.501,8.558-12.022C36.71,8.91,38.117,4.767,39.134,0z"/>
</svg>
